<svg width="216" height="83" viewBox="0 0 216 83" fill="none" xmlns="http://www.w3.org/2000/svg">
<g clip-path="url(#clip0_187_3822)">
<path d="M27 63.4301V59.7401L31.78 58.9101V25.3201L27 24.4901V20.7701H39.47L53.2 53.1501H53.39L66.69 20.7701H79.55V24.4901L74.76 25.3201V58.9101L79.55 59.7401V63.4301H64.22V59.7401L69.22 58.9101V28.6501H69.08L55.26 61.9001H51.42L37.09 28.6801H36.95L37.16 46.5201V58.9101L42.31 59.7401V63.4301H27ZM91.35 76.2201C90.764 76.2088 90.1794 76.1587 89.6 76.0701C88.88 75.9601 88.32 75.8601 87.93 75.7601L88.52 71.2201C88.9711 71.2787 89.4252 71.3121 89.88 71.3201C90.47 71.3201 90.88 71.3201 91.1 71.3201C91.6745 71.3365 92.245 71.2185 92.7658 70.9754C93.2867 70.7323 93.7435 70.3709 94.1 69.9201C94.9991 68.7548 95.7234 67.4645 96.25 66.0901L97.63 62.7501L86.41 35.9101L83 35.4401V31.7201H96.3V35.4401L92.47 36.0401L98.64 51.8801L100.14 56.0201H100.32L107.64 36.0201L103.64 35.4201V31.7201H116.64V35.4401L113.36 35.9101L100.88 68.2901C100.339 69.7348 99.6234 71.1083 98.75 72.3801C97.9766 73.5326 96.9506 74.4936 95.75 75.1901C94.4014 75.9195 92.8823 76.2751 91.35 76.2201ZM135 64.0001C132.456 64.0071 129.927 63.6226 127.5 62.8601C125.036 62.0617 122.717 60.8733 120.63 59.3401V50.2701H125.11L126.11 56.9701C127.399 57.7611 128.788 58.3765 130.24 58.8001C131.805 59.2388 133.425 59.4543 135.05 59.4401C136.761 59.4962 138.464 59.193 140.05 58.5501C141.302 58.0418 142.381 57.1844 143.16 56.0801C143.844 55.0191 144.221 53.7896 144.249 52.5276C144.277 51.2657 143.956 50.0206 143.32 48.9301C142.538 47.7945 141.468 46.8869 140.22 46.3001C138.355 45.3896 136.383 44.7177 134.35 44.3001C131.758 43.7476 129.259 42.8248 126.93 41.5601C125.077 40.5746 123.494 39.1496 122.32 37.4101C121.261 35.7332 120.715 33.7832 120.75 31.8001C120.712 29.6661 121.33 27.5719 122.52 25.8001C123.76 23.9925 125.468 22.5548 127.46 21.6401C129.776 20.5769 132.303 20.0537 134.85 20.1101C137.552 20.0578 140.24 20.5193 142.77 21.4701C144.833 22.2409 146.751 23.3568 148.44 24.7701V33.2801H143.96L142.96 27.1901C141.966 26.4313 140.855 25.8402 139.67 25.4401C138.102 24.9318 136.458 24.695 134.81 24.7401C133.321 24.7062 131.843 24.9998 130.48 25.6001C129.295 26.1196 128.278 26.9572 127.54 28.0201C126.843 29.1066 126.494 30.38 126.54 31.6701C126.514 32.8223 126.846 33.9544 127.49 34.9101C128.298 35.9654 129.362 36.7981 130.58 37.3301C132.437 38.1599 134.369 38.8096 136.35 39.2701C140.783 40.4234 144.147 42.0867 146.44 44.2601C147.563 45.2765 148.456 46.5217 149.058 47.912C149.66 49.3022 149.957 50.8053 149.93 52.3201C149.965 54.4951 149.315 56.626 148.07 58.4101C146.747 60.2433 144.945 61.6759 142.86 62.5501C140.37 63.576 137.692 64.0699 135 64.0001ZM165.47 63.3901V59.7401L170.26 58.9101V25.1301H160.58L159.74 31.0501H155.4V20.7701H190.85V31.0501H186.57L185.69 25.1301H176V58.9101L180.78 59.7401V63.4301L165.47 63.3901Z" fill="#616161"/>
<path d="M24 83C18.5 81.4467 14.5833 78.98 12.25 75.6C9.86328 71.952 8.65863 67.6571 8.8 63.3V54.63C8.8 51.47 8.08 49.01 6.64 47.25C5.2 45.49 2.98667 44.61 0 44.61V38.38C2.99333 38.38 5.20667 37.5133 6.64 35.78C8.07333 34.0467 8.79333 31.5833 8.8 28.39V19.69C8.66292 15.3291 9.87851 11.0326 12.28 7.39C14.6067 4.02333 18.5133 1.56 24 0L25.69 5C24.2801 5.38676 22.9643 6.05836 21.824 6.97336C20.6837 7.88835 19.743 9.02733 19.06 10.32C17.653 13.256 16.9673 16.4856 17.06 19.74V28.44C17.1157 31.1606 16.501 33.8532 15.27 36.28C14.0878 38.5225 12.2492 40.3506 10 41.52C12.2954 42.7036 14.1679 44.569 15.36 46.86C16.5833 49.2646 17.1979 51.9326 17.15 54.63V63.3C17.0536 66.5387 17.7397 69.7529 19.15 72.67C19.8323 73.9531 20.7655 75.0861 21.8941 76.0017C23.0227 76.9173 24.3237 77.5969 25.72 78L24 83Z" fill="#F37726"/>
<path d="M192 82.46L190.33 77.53C191.699 77.131 192.975 76.4629 194.082 75.5649C195.19 74.6669 196.107 73.5569 196.78 72.3C198.194 69.4375 198.881 66.2709 198.78 63.08V54.53C198.72 51.8173 199.368 49.1359 200.66 46.75C201.979 44.456 204.008 42.6523 206.44 41.61C204.009 40.636 201.974 38.8757 200.66 36.61C199.362 34.1938 198.714 31.4819 198.78 28.74V20.13C198.877 16.9234 198.19 13.7416 196.78 10.86C196.116 9.59621 195.202 8.4808 194.093 7.58166C192.984 6.68253 191.704 6.0185 190.33 5.63L192 0.75C197.333 2.25 201.16 4.66667 203.48 8C205.846 11.5859 207.044 15.8161 206.91 20.11V28.69C206.91 31.8233 207.62 34.2433 209.04 35.95C210.46 37.6567 212.653 38.51 215.62 38.51V44.64C212.653 44.64 210.46 45.51 209.04 47.25C207.62 48.99 206.91 51.41 206.91 54.51V63.06C207.039 67.3439 205.841 71.5629 203.48 75.14C201.16 78.4867 197.333 80.9267 192 82.46Z" fill="#F37726"/>
</g>
<defs>
<clipPath id="clip0_187_3822">
<rect width="216" height="83" fill="white"/>
</clipPath>
</defs>
</svg>
